<?xml version="1.0" encoding="UTF-8"?>
<svg width="153px" height="51px" viewBox="0 0 153 51" version="1.1" xmlns="http://www.w3.org/2000/svg" xmlns:xlink="http://www.w3.org/1999/xlink">
    <!-- Generator: Sketch 48.2 (47327) - http://www.bohemiancoding.com/sketch -->
    <title>logo</title>
    <desc>Created with Sketch.</desc>
    <defs>
        <polygon id="path-1" points="38.8476562 50.4069767 0 50.4069767 0 25.2034884 0 0 38.8476562 0"></polygon>
    </defs>
    <g id="Desktop-HD" stroke="none" stroke-width="1" fill="none" fill-rule="evenodd" transform="translate(-592.000000, -469.000000)">
        <g id="logo" transform="translate(592.000000, 469.000000)">
            <g id="codingninjas-logo">
                <path d="M143.834259,12.0608087 L143.414043,16.2153513 L146.574283,16.2153513 L146.501434,16.9354131 C146.193334,19.9818419 140.401457,20.0095978 140.712399,16.9354131 L141.393096,10.2052309 C141.653754,7.62959126 146.134166,7.02019942 146.958608,9.65135079 L151.346803,7.74026121 C150.292975,4.61056473 147.462867,3.55813953 144.890042,3.55813953 C140.975012,3.55813953 136.83557,5.77383665 136.38728,10.2052309 L135.706406,16.9354131 C135.249765,21.4498981 138.935408,23.7209302 142.850616,23.7209302 C146.821971,23.7209302 150.854981,21.4498981 151.311622,16.9354131 L151.804688,12.0608087 L143.834259,12.0608087 Z M128.538137,12.4308402 C128.566305,12.4308402 128.729573,15.8030945 128.757741,15.8030945 L128.613671,15.8307953 L127.320983,11.9055851 L123.346397,3.55813953 L118.545782,3.55813953 L116.542969,23.127907 L121.597815,23.127907 L122.398366,15.3053637 L122.13642,11.5186571 L122.28049,11.4911328 L123.629514,15.4161666 L127.358661,23.127907 L132.470023,23.127907 L134.472656,3.55813953 L129.445978,3.55813953 L128.538137,12.4308402 Z M107.578125,23.127907 L112.714723,23.127907 L114.75,3.55813953 L109.613219,3.55813953 L107.578125,23.127907 Z M102.184568,10.3294736 L101.555526,16.3025731 C101.424664,17.5459481 100.540936,18.3837209 98.8079565,18.3837209 L96.2226562,18.3837209 L97.2841762,8.30232558 L99.869296,8.30232558 C101.573937,8.30232558 102.31525,9.08609865 102.184568,10.3294736 Z M100.052335,3.55813953 L92.7878078,3.55813953 L90.84375,23.127618 L98.108277,23.127618 C101.998134,23.1553183 105.839225,21.1930068 106.286661,16.687383 L106.940312,10.1088229 C107.393321,5.54832776 103.945153,3.55813953 100.052335,3.55813953 Z M83.6613549,10.561474 L82.9766646,17.3953394 C82.8324059,18.8355848 81.1490294,19.5697674 79.5395764,19.5697674 C77.9297646,19.5697674 76.3624768,18.863885 76.5096063,17.3953394 L77.1941172,10.561474 C77.3414261,9.09292838 79.0018361,8.30232558 80.583478,8.30232558 C82.2214597,8.30232558 83.8169174,9.00838832 83.6613549,10.561474 Z M81.4003077,3.55813953 C77.2494663,3.55813953 72.9007522,5.77383665 72.4397071,10.2883217 L71.7553152,16.990748 C71.2971404,21.4774772 75.218715,23.7209302 79.369377,23.7209302 C83.520039,23.7209302 87.8716234,21.4774772 88.3297982,16.990748 L89.0141901,10.2883217 C89.4725444,5.80159253 85.5507904,3.55813953 81.4003077,3.55813953 Z M60.0218506,10.2605658 C60.2645143,7.82335206 64.6672519,7.26947198 65.7456018,9.70668577 L69.9257812,8.07262461 C68.7045954,4.58280885 65.9172847,3.55813953 63.523166,3.55813953 C59.615721,3.55813953 55.5372925,5.82934841 55.0963719,10.2605658 L54.423627,17.0185039 C53.9799091,21.4774772 57.6090251,23.7209302 61.4339505,23.7209302 C63.8829657,23.7209302 66.9486054,22.5021465 68.8892156,19.3172919 L64.7948776,17.3231114 C63.4516607,20.0373537 59.1150086,19.3726269 59.3492805,17.0185039 L60.0218506,10.2605658 Z" id="Fill-1" fill="#5DBEC0"></path>
                <path d="M80.0859375,46.8488372 L85.6809549,46.8488372 L86.6601562,39.1395349 L81.0290148,39.425625 L80.0859375,46.8488372 Z M116.542969,37.9534884 L111.101971,38.2301458 L110.768511,40.8575264 C110.613748,42.078623 109.228979,42.8826585 107.885061,42.8826585 C106.541142,42.8826585 105.192545,42.1977586 105.102567,40.5002926 L99.8085938,41.5424264 C99.8526832,46.0097516 103.29148,48.0348837 107.017668,48.0348837 C111.141022,48.0348837 115.592796,45.4439872 116.174597,40.8575264 L116.542969,37.9534884 Z M124.910156,37.9534884 L127.071407,32.0232558 L127.212164,32.0232558 L127.898438,37.9534884 L124.910156,37.9534884 Z M131.793105,31.2891386 L130.49903,26.0930233 L125.503412,26.0930233 L120.684709,35.9409493 L124.781567,35.9409493 L122.801928,37.2543459 L119.970407,37.4009233 L115.347656,46.8488372 L121.232333,46.8488372 L123.099179,42.6857936 L128.891897,42.6857936 L129.783292,46.8488372 L135.667969,46.8488372 L131.793105,31.2891386 Z M73.5117188,46.8488372 L78.5795411,46.8488372 L79.4882812,39.7325581 L74.387466,39.9902988 L73.5117188,46.8488372 Z M146.057638,34.5079511 C146.029772,34.5022711 146.001727,34.4967686 145.973861,34.4910886 C145.894875,34.4751136 145.81589,34.4591386 145.73655,34.443696 C145.62597,34.422396 145.515214,34.401451 145.404457,34.381216 C143.752156,34.0198256 142.684523,33.4170351 142.747889,32.3921491 C143.14175,29.9208143 147.06936,29.8302892 149.061031,32.211454 L153,29.4987189 C151.075599,26.8161589 148.604159,26.0930233 145.952029,26.0930233 C141.942949,26.0930233 137.788856,28.2929603 137.278381,32.4826742 C137.265246,32.5914818 137.255484,32.6983369 137.247142,32.804482 C137.243769,32.8483246 137.240929,32.8916346 137.238444,32.9351221 C137.235427,32.9860647 137.233297,33.0364747 137.231345,33.0867073 C137.084911,36.7664632 139.900337,38.7491401 143.174587,39.264068 C144.933917,39.5051133 146.854058,40.1986064 146.645502,41.40401 C146.211881,43.6946497 141.415789,43.5741271 139.542152,40.9820921 L135.667969,44.1769176 C137.39109,46.7387775 140.008609,48.0348837 142.630032,48.0348837 C146.639112,48.0348837 151.355331,45.7744191 152.043657,41.6450553 C152.878771,36.7020307 149.61801,35.2403168 146.057638,34.5079511 Z M93.759863,39.091916 L93.6049062,39.1210464 L93.5082359,38.8134229 L88.453125,39.0775263 L92.1058056,46.8488372 L97.5882916,46.8488372 L98.6132812,38.5465116 L93.7380056,38.801139 C93.7470684,38.9792553 93.7547096,39.091916 93.759863,39.091916 Z M64.6341143,47.4418605 L70.2518418,47.4418605 L71.1210938,40.3255814 L61.5585938,40.8304482 L64.6341143,47.4418605 Z M53.1914062,47.4418605 L58.4223771,47.4418605 L59.1679688,40.9186047 L53.9028814,41.2157396 L53.1914062,47.4418605 Z M111.210868,36.1744186 L116.528963,36.1744186 L117.738281,26.0930233 L107.582561,26.0930233 L106.980469,31.1133905 L111.817917,31.1133905 L111.210868,36.1744186 Z M64.8331765,35.1562576 L60.7466677,26.0930233 L55.5998122,26.0930233 L54.3867188,36.1744186 L59.3532975,36.1744186 L59.2827854,34.736147 L59.4376635,34.7061005 L59.9078038,36.1744186 L65.1445312,36.1744186 L64.8331765,35.1562576 Z M66.3398438,35.7264206 C66.3464415,35.7264206 66.3566056,35.9045403 66.3687312,36.1744186 L71.6961523,36.1744186 L72.9140625,26.0930233 L67.5035454,26.0930233 L66.3398438,35.7264206 Z M75.8702571,26.0930233 L74.7070312,36.1744186 L79.5203679,36.1744186 L80.6835938,26.0930233 L75.8702571,26.0930233 Z M92.3253589,35.1562576 L88.2389602,26.0930233 L83.0920198,26.0930233 L81.8789062,36.1744186 L86.845567,36.1744186 L86.7748761,34.736147 L86.9299344,34.7061005 L87.4000825,36.1744186 L92.6367188,36.1744186 L92.3253589,35.1562576 Z M93.234375,35.7264206 C93.2409728,35.7264206 93.2511369,35.9045403 93.2632625,36.1744186 L98.5906835,36.1744186 L99.8085938,26.0930233 L94.3980766,26.0930233 L93.234375,35.7264206 Z" id="Fill-2" fill="#2C353B"></path>
                <g id="Group-6">
                    <mask id="mask-2" fill="white">
                        <use xlink:href="#path-1"></use>
                    </mask>
                    <g id="Clip-4"></g>
                    <path d="M15.5390625,7.11627907 L18.5273438,7.11627907 L18.5273438,4.15116279 L15.5390625,4.15116279 L15.5390625,7.11627907 Z M27.4921875,7.11627907 L30.4804688,7.11627907 L30.4804688,4.15116279 L27.4921875,4.15116279 L27.4921875,7.11627907 Z M23.3085938,7.11627907 L26.296875,7.11627907 L26.296875,4.15116279 L23.3085938,4.15116279 L23.3085938,7.11627907 Z M19.7226562,7.11627907 L22.7109375,7.11627907 L22.7109375,4.15116279 L19.7226562,4.15116279 L19.7226562,7.11627907 Z M11.953125,7.11627907 L14.9414062,7.11627907 L14.9414062,4.15116279 L11.953125,4.15116279 L11.953125,7.11627907 Z M7.76953125,7.11627907 L10.7578125,7.11627907 L10.7578125,4.15116279 L7.76953125,4.15116279 L7.76953125,7.11627907 Z" id="Fill-3" fill="#B73B48" mask="url(#mask-2)"></path>
                    <path d="M23.90625,13.6395349 L26.8945312,13.6395349 L26.8945312,10.6744186 L23.90625,10.6744186 L23.90625,13.6395349 Z M11.953125,13.6395349 L14.9414062,13.6395349 L14.9414062,10.6744186 L11.953125,10.6744186 L11.953125,13.6395349 Z M28.0898438,50.4069767 L31.078125,50.4069767 L31.078125,47.4418605 L28.0898438,47.4418605 L28.0898438,50.4069767 Z M23.90625,50.4069767 L26.8945312,50.4069767 L26.8945312,47.4418605 L23.90625,47.4418605 L23.90625,50.4069767 Z M28.0898438,46.255814 L31.078125,46.255814 L31.078125,43.2906977 L28.0898438,43.2906977 L28.0898438,46.255814 Z M23.90625,46.255814 L26.8945312,46.255814 L26.8945312,43.2906977 L23.90625,43.2906977 L23.90625,46.255814 Z M11.953125,50.4069767 L14.9414062,50.4069767 L14.9414062,47.4418605 L11.953125,47.4418605 L11.953125,50.4069767 Z M7.76953125,50.4069767 L10.7578125,50.4069767 L10.7578125,47.4418605 L7.76953125,47.4418605 L7.76953125,50.4069767 Z M11.953125,46.255814 L14.9414062,46.255814 L14.9414062,43.2906977 L11.953125,43.2906977 L11.953125,46.255814 Z M7.76953125,46.255814 L10.7578125,46.255814 L10.7578125,43.2906977 L7.76953125,43.2906977 L7.76953125,46.255814 Z M28.0898438,42.6976744 L31.078125,42.6976744 L31.078125,39.7325581 L28.0898438,39.7325581 L28.0898438,42.6976744 Z M23.90625,42.6976744 L26.8945312,42.6976744 L26.8945312,39.7325581 L23.90625,39.7325581 L23.90625,42.6976744 Z M11.953125,42.6976744 L14.9414062,42.6976744 L14.9414062,39.7325581 L11.953125,39.7325581 L11.953125,42.6976744 Z M7.76953125,42.6976744 L10.7578125,42.6976744 L10.7578125,39.7325581 L7.76953125,39.7325581 L7.76953125,42.6976744 Z M19.7226562,42.6976744 L22.7109375,42.6976744 L22.7109375,39.7325581 L19.7226562,39.7325581 L19.7226562,42.6976744 Z M16.1367188,42.6976744 L19.125,42.6976744 L19.125,39.7325581 L16.1367188,39.7325581 L16.1367188,42.6976744 Z M28.0898438,38.5465116 L31.078125,38.5465116 L31.078125,35.5813953 L28.0898438,35.5813953 L28.0898438,38.5465116 Z M23.90625,38.5465116 L26.8945312,38.5465116 L26.8945312,35.5813953 L23.90625,35.5813953 L23.90625,38.5465116 Z M11.953125,38.5465116 L14.9414062,38.5465116 L14.9414062,35.5813953 L11.953125,35.5813953 L11.953125,38.5465116 Z M7.76953125,38.5465116 L10.7578125,38.5465116 L10.7578125,35.5813953 L7.76953125,35.5813953 L7.76953125,38.5465116 Z M19.7226562,38.5465116 L22.7109375,38.5465116 L22.7109375,35.5813953 L19.7226562,35.5813953 L19.7226562,38.5465116 Z M16.1367188,38.5465116 L19.125,38.5465116 L19.125,35.5813953 L16.1367188,35.5813953 L16.1367188,38.5465116 Z M35.859375,34.3953488 L38.8476562,34.3953488 L38.8476562,31.4302326 L35.859375,31.4302326 L35.859375,34.3953488 Z M31.6757812,34.3953488 L34.6640625,34.3953488 L34.6640625,31.4302326 L31.6757812,31.4302326 L31.6757812,34.3953488 Z M28.0898438,34.3953488 L31.078125,34.3953488 L31.078125,31.4302326 L28.0898438,31.4302326 L28.0898438,34.3953488 Z M23.90625,34.3953488 L26.8945312,34.3953488 L26.8945312,31.4302326 L23.90625,31.4302326 L23.90625,34.3953488 Z M11.953125,34.3953488 L14.9414062,34.3953488 L14.9414062,31.4302326 L11.953125,31.4302326 L11.953125,34.3953488 Z M7.76953125,34.3953488 L10.7578125,34.3953488 L10.7578125,31.4302326 L7.76953125,31.4302326 L7.76953125,34.3953488 Z M4.18359375,34.3953488 L7.171875,34.3953488 L7.171875,31.4302326 L4.18359375,31.4302326 L4.18359375,34.3953488 Z M0,34.3953488 L2.98828125,34.3953488 L2.98828125,31.4302326 L0,31.4302326 L0,34.3953488 Z M19.7226562,34.3953488 L22.7109375,34.3953488 L22.7109375,31.4302326 L19.7226562,31.4302326 L19.7226562,34.3953488 Z M16.1367188,34.3953488 L19.125,34.3953488 L19.125,31.4302326 L16.1367188,31.4302326 L16.1367188,34.3953488 Z M35.859375,30.8372093 L38.8476562,30.8372093 L38.8476562,27.872093 L35.859375,27.872093 L35.859375,30.8372093 Z M31.6757812,30.8372093 L34.6640625,30.8372093 L34.6640625,27.872093 L31.6757812,27.872093 L31.6757812,30.8372093 Z M28.0898438,30.8372093 L31.078125,30.8372093 L31.078125,27.872093 L28.0898438,27.872093 L28.0898438,30.8372093 Z M23.90625,30.8372093 L26.8945312,30.8372093 L26.8945312,27.872093 L23.90625,27.872093 L23.90625,30.8372093 Z M11.953125,30.8372093 L14.9414062,30.8372093 L14.9414062,27.872093 L11.953125,27.872093 L11.953125,30.8372093 Z M7.76953125,30.8372093 L10.7578125,30.8372093 L10.7578125,27.872093 L7.76953125,27.872093 L7.76953125,30.8372093 Z M4.18359375,30.8372093 L7.171875,30.8372093 L7.171875,27.872093 L4.18359375,27.872093 L4.18359375,30.8372093 Z M0,30.8372093 L2.98828125,30.8372093 L2.98828125,27.872093 L0,27.872093 L0,30.8372093 Z M19.7226562,30.8372093 L22.7109375,30.8372093 L22.7109375,27.872093 L19.7226562,27.872093 L19.7226562,30.8372093 Z M16.1367188,30.8372093 L19.125,30.8372093 L19.125,27.872093 L16.1367188,27.872093 L16.1367188,30.8372093 Z M23.90625,26.6860465 L26.8945312,26.6860465 L26.8945312,23.7209302 L23.90625,23.7209302 L23.90625,26.6860465 Z M19.7226562,26.6860465 L22.7109375,26.6860465 L22.7109375,23.7209302 L19.7226562,23.7209302 L19.7226562,26.6860465 Z M16.1367188,26.6860465 L19.125,26.6860465 L19.125,23.7209302 L16.1367188,23.7209302 L16.1367188,26.6860465 Z M11.953125,26.6860465 L14.9414062,26.6860465 L14.9414062,23.7209302 L11.953125,23.7209302 L11.953125,26.6860465 Z M23.90625,2.96511628 L26.8945312,2.96511628 L26.8945312,0 L23.90625,0 L23.90625,2.96511628 Z M19.7226562,2.96511628 L22.7109375,2.96511628 L22.7109375,0 L19.7226562,0 L19.7226562,2.96511628 Z M16.1367188,2.96511628 L19.125,2.96511628 L19.125,0 L16.1367188,0 L16.1367188,2.96511628 Z M11.953125,2.96511628 L14.9414062,2.96511628 L14.9414062,0 L11.953125,0 L11.953125,2.96511628 Z M28.0898438,22.5348837 L31.078125,22.5348837 L31.078125,19.5697674 L28.0898438,19.5697674 L28.0898438,22.5348837 Z M23.90625,22.5348837 L26.8945312,22.5348837 L26.8945312,19.5697674 L23.90625,19.5697674 L23.90625,22.5348837 Z M19.7226562,22.5348837 L22.7109375,22.5348837 L22.7109375,19.5697674 L19.7226562,19.5697674 L19.7226562,22.5348837 Z M16.1367188,22.5348837 L19.125,22.5348837 L19.125,19.5697674 L16.1367188,19.5697674 L16.1367188,22.5348837 Z M11.953125,22.5348837 L14.9414062,22.5348837 L14.9414062,19.5697674 L11.953125,19.5697674 L11.953125,22.5348837 Z M7.76953125,22.5348837 L10.7578125,22.5348837 L10.7578125,19.5697674 L7.76953125,19.5697674 L7.76953125,22.5348837 Z M31.6757812,22.5348837 L34.6640625,22.5348837 L34.6640625,19.5697674 L31.6757812,19.5697674 L31.6757812,22.5348837 Z M31.6757812,18.9767442 L34.6640625,18.9767442 L34.6640625,16.0116279 L31.6757812,16.0116279 L31.6757812,18.9767442 Z M31.6757812,14.8255814 L34.6640625,14.8255814 L34.6640625,11.8604651 L31.6757812,11.8604651 L31.6757812,14.8255814 Z M31.6757812,10.6744186 L34.6640625,10.6744186 L34.6640625,7.70930233 L31.6757812,7.70930233 L31.6757812,10.6744186 Z M4.18359375,22.5348837 L7.171875,22.5348837 L7.171875,19.5697674 L4.18359375,19.5697674 L4.18359375,22.5348837 Z M4.18359375,18.9767442 L7.171875,18.9767442 L7.171875,16.0116279 L4.18359375,16.0116279 L4.18359375,18.9767442 Z M4.18359375,14.8255814 L7.171875,14.8255814 L7.171875,11.8604651 L4.18359375,11.8604651 L4.18359375,14.8255814 Z M4.18359375,10.6744186 L7.171875,10.6744186 L7.171875,7.70930233 L4.18359375,7.70930233 L4.18359375,10.6744186 Z" id="Fill-5" fill="#2C353B" mask="url(#mask-2)"></path>
                </g>
            </g>
        </g>
    </g>
</svg>